<svg version="1.1" xmlns="http://www.w3.org/2000/svg" xmlns:xlink="http://www.w3.org/1999/xlink" viewBox="0 0 74 5.2" xml:space="preserve">
<path style="fill: #42B0D8;" d="M72.9,4.8c-0.6,0.5-1.2,0.4-2.3,0.3c-2.3-0.3-4.5-0.4-6.8-0.4c-2,0-4.1-0.1-6.1-0.2 c-2.1-0.2-4.3,0-6.4-0.1c-4.3-0.1-8.5-0.1-12.8-0.3C34.8,4,30.9,4.1,27.1,3.7s-7.6-0.3-11.3-0.6C13.8,3,11.7,3,9.7,3 c-1,0-2.1-0.1-3.1-0.1c-0.8,0-1.9,0.1-2.7,0C2.9,2.7,0.8,3.2,0.3,2.5c-0.4-0.5-0.5-2,0.2-2.3c0.9-0.2,1.7-0.2,2.6,0 C4,0.3,4.9,0.3,5.8,0.3c2,0,4.1,0.1,6.2,0.2c11.2,0.4,22.4,1,33.6,1.4c5.4,0.2,10.8,0,16.2,0.3c1.4,0.1,2.8,0.1,4.2,0.1 c0.8,0,1.5,0,2.3,0.1c0.8,0,1.5,0,2.3,0c0.5,0.1,1,0.2,1.5,0.2c0.6,0,1.2,0,1.8,0.1C74.6,3,73,4.7,72.9,4.8z"/>
</svg>
